<?xml version="1.0" encoding="UTF-8"?>
<svg version="1.1" xmlns="http://www.w3.org/2000/svg" width="4096" height="4096">
<path d="M0 0 C2.60737626 -0.00697959 5.21475236 -0.01402055 7.8221283 -0.02111816 C15.4013312 -0.03957509 22.9805187 -0.04510546 30.55974197 -0.04643822 C32.69240591 -0.04687681 34.82506937 -0.0477424 36.95773315 -0.04866028 C78.27676449 -0.06318587 119.49807332 0.16528653 160.7421875 2.97528076 C164.18042351 3.20712569 167.61928947 3.42573457 171.05859375 3.64111328 C281.2398914 10.59544379 391.43223735 26.53037606 530.19836426 59.48040771 C533.00212582 60.17370723 535.80700648 60.86226456 538.61230469 61.54931641 C581.73472055 72.13012826 624.40755517 84.61490202 666.61682129 98.38659668 C669.27726866 99.25404647 671.93890945 100.11777482 674.60058594 100.98144531 C766.34312618 130.80371533 855.3031279 167.93278938 991.12109375 235.203125 C992.17361328 235.76161133 993.22613281 236.32009766 994.31054688 236.89550781 C1009.36383532 244.88638823 1024.31719976 253.02280697 1039.11181641 261.48583984 C1042.33252758 263.3237826 1045.56036302 265.148786 1048.7890625 266.97265625 C1064.31640125 275.75889571 1079.62180513 284.86684874 1094.83154297 294.19091797 C1097.95501875 296.10153749 1101.08510934 298.00064005 1104.21875 299.89453125 C1162.83107483 335.32906007 1220.00839793 374.19275447 1274.12109375 416.203125 C1275.7403252 417.45142683 1277.3610368 418.69778274 1278.98217773 419.94360352 C1280.07324608 420.78209921 1281.16390505 421.62112784 1282.25415039 422.46069336 C1284.91955741 424.51318861 1287.58916234 426.55955487 1290.265625 428.59765625 C1296.97638568 433.71967951 1303.56620438 438.96781491 1310.10205078 444.3112793 C1314.46286785 447.87203766 1318.8658265 451.37035783 1323.30859375 454.828125 C1329.01144094 459.27450826 1334.54431256 463.89454089 1340.04296875 468.58984375 C1342.84816695 470.98194769 1345.69572532 473.31768351 1348.55859375 475.640625 C1354.56845206 480.53561105 1360.43860658 485.58629858 1366.30957031 490.64599609 C1368.11471771 492.19764436 1369.92547934 493.74246085 1371.73828125 495.28515625 C1378.14863617 500.74508551 1384.4645675 506.27796298 1390.671875 511.96875 C1393.44609247 514.49961506 1396.26816496 516.96951891 1399.1015625 519.43359375 C1402.28670603 522.22444485 1405.42712869 525.06441603 1408.5703125 527.90234375 C1410.19436712 529.3672261 1411.8216316 530.82856331 1413.453125 532.28515625 C1419.78206724 537.94236996 1425.9928275 543.72024412 1432.1875 549.5234375 C1434.77084684 551.94344354 1437.36187619 554.35469371 1439.9609375 556.7578125 C1446.6313058 562.93433348 1453.20829504 569.17116014 1459.55908203 575.67797852 C1462.13327944 578.2972394 1464.75823105 580.7718114 1467.55859375 583.1484375 C1473.72403783 588.4837064 1479.40453655 594.33803764 1485.1574707 600.10913086 C1487.17873643 602.1357548 1489.20528949 604.15698047 1491.23242188 606.17773438 C1496.85467368 611.79738854 1502.4417096 617.38594717 1507.58764648 623.45141602 C1510.58481457 626.8751831 1513.87424293 630.01847438 1517.12109375 633.203125 C1521.78894391 637.78155275 1526.28548166 642.41513819 1530.52929688 647.39257812 C1532.15696803 649.24392924 1533.8609745 650.97795443 1535.62109375 652.703125 C1537.91435411 654.96110443 1540.08537403 657.26309004 1542.18359375 659.703125 C1545.71944716 663.8082428 1549.41463312 667.75288828 1553.12109375 671.703125 C1557.88635226 676.79006784 1562.59932343 681.89706475 1567.12109375 687.203125 C1569.05726494 689.47509514 1570.99480047 691.74589195 1572.93359375 694.015625 C1573.70981079 694.92513916 1573.70981079 694.92513916 1574.50170898 695.85302734 C1577.706373 699.59421882 1580.97334202 703.26444789 1584.30859375 706.890625 C1588.26094039 711.2005649 1591.97804711 715.64845253 1595.6484375 720.19921875 C1598.52991762 723.69978465 1601.50820618 727.10600524 1604.49609375 730.515625 C1609.20894531 735.90623536 1613.71472542 741.41210545 1618.09716797 747.07348633 C1621.17527423 751.0376802 1624.35610837 754.89176138 1627.62109375 758.703125 C1632.78986798 764.75025302 1637.72280176 770.95920118 1642.59960938 777.24316406 C1644.25482008 779.37538992 1645.91429286 781.5042556 1647.57421875 783.6328125 C1651.09615142 788.15136495 1654.61012606 792.67604949 1658.12109375 797.203125 C1658.56807617 797.77885254 1659.01505859 798.35458008 1659.47558594 798.94775391 C1671.46598662 814.4040555 1683.13086911 830.09959591 1694.53271484 845.99414062 C1696.12519499 848.20882866 1697.72531058 850.41778184 1699.328125 852.625 C1702.60672083 857.14083933 1705.86903802 861.66813919 1709.12109375 866.203125 C1709.62060547 866.89873535 1710.12011719 867.5943457 1710.63476562 868.31103516 C1722.90303877 885.45710351 1734.44880342 903.10398564 1746.10668945 920.66699219 C1748.4879162 924.25311919 1750.87780187 927.83335656 1753.27088928 931.41157532 C1757.23256226 937.33791036 1761.14807886 943.28729141 1764.93359375 949.328125 C1765.67959839 950.51450562 1765.67959839 950.51450562 1766.44067383 951.72485352 C1768.00428988 954.21545481 1769.56359879 956.70869185 1771.12109375 959.203125 C1771.62479492 960.00959473 1772.12849609 960.81606445 1772.64746094 961.64697266 C1776.49576788 967.81778817 1780.31408418 974.00676176 1784.12109375 980.203125 C1784.77239258 981.26176758 1785.42369141 982.32041016 1786.09472656 983.41113281 C1796.78651872 1000.8162583 1807.09230104 1018.40819585 1817.12109375 1036.203125 C1817.73082031 1037.28223145 1818.34054688 1038.36133789 1818.96875 1039.47314453 C1831.05911943 1060.8826297 1842.77107345 1082.47314517 1854.06640625 1104.3125 C1856.34464021 1108.71566619 1858.64898094 1113.10385143 1860.97314453 1117.48291016 C1870.82235092 1136.05694802 1880.01935842 1154.91099331 1888.80078125 1174.01171875 C1890.94109467 1178.66536447 1893.11104637 1183.30261857 1895.31640625 1187.92578125 C1906.6281635 1211.70787137 1916.89145258 1235.93992187 1927.12109375 1260.203125 C1927.68307465 1261.53398132 1927.68307465 1261.53398132 1928.25640869 1262.89172363 C1944.74280262 1301.9576542 1959.58206121 1341.6967322 1973.30322266 1381.8145752 C1974.14587482 1384.27549682 1974.99266394 1386.73496963 1975.83984375 1389.19433594 C1992.69705599 1438.22484826 2007.38404695 1487.94824357 2020.12109375 1538.203125 C2020.3739917 1539.19729431 2020.62688965 1540.19146362 2020.88745117 1541.21575928 C2047.39611772 1645.48919874 2065.8057927 1751.81756161 2083.32421875 2013.3359375 C2083.32942015 2015.29808768 2083.33462402 2017.26023785 2083.34000206 2019.22238755 C2083.3620705 2027.54325982 2083.36920706 2035.86411107 2083.37065697 2044.18500996 C2083.37109552 2046.3368081 2083.37196106 2048.48860576 2083.37287903 2050.64040375 C2083.38721766 2091.7856844 2083.21729624 2132.84032502 2080.34893799 2173.9074707 C2080.11698211 2177.26259784 2079.89840177 2180.61837459 2079.68310547 2183.97460938 C2076.26055813 2236.92179067 2070.61058467 2289.68168234 2063.12109375 2342.203125 C2062.97283142 2343.24932007 2062.82456909 2344.29551514 2062.67181396 2345.37341309 C2050.77220621 2429.17844883 2033.41791542 2512.43128952 1985.12109375 2679.203125 C1984.81105408 2680.16140198 1984.5010144 2681.11967896 1984.18157959 2682.10699463 C1964.13851968 2743.93877192 1941.26358678 2804.68675909 1915.12109375 2864.203125 C1914.41789292 2865.80807224 1913.71476737 2867.41305248 1913.01171875 2869.01806641 C1904.00849452 2889.54990103 1894.76234072 2909.96274789 1885.12109375 2930.203125 C1884.80716675 2930.86256104 1884.49323975 2931.52199707 1884.1697998 2932.20141602 C1869.17086318 2963.67675708 1853.63268514 2994.97534196 1836.65673828 3025.43652344 C1834.86967313 3028.65608183 1833.1022579 3031.88622527 1831.3359375 3035.1171875 C1823.41452066 3049.59093192 1815.32006893 3063.94446106 1806.92480469 3078.15039062 C1805.02967325 3081.35785185 1803.1416992 3084.56946489 1801.25390625 3087.78125 C1782.6573945 3119.35885622 1763.12901495 3150.27501068 1742.80859375 3180.765625 C1742.21276489 3181.65991211 1741.61693604 3182.55419922 1741.00305176 3183.47558594 C1733.46570018 3194.78083428 1725.86072464 3206.03530844 1718.12109375 3217.203125 C1717.47519287 3218.13552002 1716.82929199 3219.06791504 1716.16381836 3220.02856445 C1700.34595824 3242.7968663 1684.12144573 3265.30100487 1667.12109375 3287.203125 C1665.53702223 3289.2650581 1663.95370853 3291.32757359 1662.37109375 3293.390625 C1660.6229533 3295.66289437 1658.87235497 3297.93326023 1657.12109375 3300.203125 C1656.59499512 3300.88536133 1656.06889648 3301.56759766 1655.52685547 3302.27050781 C1648.72525697 3311.08135703 1641.85667533 3319.82572846 1634.80761719 3328.44018555 C1631.33226888 3332.69213319 1627.92787588 3336.99185221 1624.55859375 3341.328125 C1619.44267363 3347.89326164 1614.05227734 3354.19820613 1608.60302734 3360.48730469 C1606.19619353 3363.27399794 1603.8128092 3366.08034383 1601.43359375 3368.890625 C1600.97855469 3369.42751953 1600.52351563 3369.96441406 1600.0546875 3370.51757812 C1597.19827281 3373.89821922 1594.39983335 3377.32058017 1591.62109375 3380.765625 C1587.97397891 3385.25287879 1584.13345542 3389.50439147 1580.19604492 3393.73388672 C1577.30496803 3396.85723302 1574.58000154 3400.05867158 1571.93359375 3403.390625 C1567.2484427 3409.21952902 1562.13083963 3414.60795323 1556.96801758 3420.0144043 C1553.14504282 3424.02218681 1549.43338075 3428.09574207 1545.80517578 3432.28051758 C1543.14450211 3435.31803644 1540.38605225 3438.26073384 1537.62109375 3441.203125 C1536.7237854 3442.16025391 1536.7237854 3442.16025391 1535.80834961 3443.13671875 C1534.54824132 3444.48083426 1533.28773846 3445.82457995 1532.02685547 3447.16796875 C1530.14779001 3449.17461615 1528.27607837 3451.18787101 1526.40625 3453.203125 C1519.51697774 3460.61343465 1512.53533386 3467.89890377 1505.30688477 3474.98046875 C1502.39831382 3477.84639203 1499.61357761 3480.75016518 1496.9609375 3483.85546875 C1492.35310923 3489.1907812 1487.34262467 3494.13106925 1482.35131836 3499.10327148 C1480.68683098 3500.7623982 1479.02775928 3502.42680551 1477.36914062 3504.09179688 C1472.38200674 3509.08172744 1467.35995263 3513.96665834 1461.99194336 3518.55053711 C1458.36292275 3521.75617988 1455.01243153 3525.25001422 1451.62109375 3528.703125 C1446.84735256 3533.56381958 1442.01908443 3538.2490401 1436.85351562 3542.69335938 C1434.84594534 3544.44291048 1432.9704166 3546.2877549 1431.12109375 3548.203125 C1428.0386387 3551.32723484 1424.84599603 3554.23013588 1421.51953125 3557.08984375 C1418.32963052 3559.90048918 1415.22838082 3562.80176222 1412.12109375 3565.703125 C1407.81577451 3569.71919653 1403.49141594 3573.6944184 1399.03125 3577.5390625 C1396.75904864 3579.51852626 1394.53649503 3581.5489567 1392.30859375 3583.578125 C1388.8673117 3586.68841351 1385.35788077 3589.66790812 1381.74609375 3592.578125 C1377.73282559 3595.82265447 1373.89698508 3599.19063965 1370.12109375 3602.703125 C1365.54520309 3606.95515628 1360.83480891 3610.96977178 1355.96875 3614.890625 C1352.81487381 3617.45179743 1349.71531096 3620.07054137 1346.62109375 3622.703125 C1340.84491794 3627.60806236 1335.00075747 3632.42253567 1329.12109375 3637.203125 C1327.90596373 3638.20017205 1326.69113885 3639.19759106 1325.4765625 3640.1953125 C1317.89732558 3646.40654813 1310.22622307 3652.46689143 1302.41870117 3658.38867188 C1297.65690521 3662.00691491 1292.96424969 3665.69949117 1288.30859375 3669.453125 C1282.01805496 3674.51604277 1275.62182923 3679.4122514 1269.12109375 3684.203125 C1268.44095215 3684.70537598 1267.76081055 3685.20762695 1267.06005859 3685.72509766 C1263.08460964 3688.6605338 1259.1061459 3691.59182647 1255.125 3694.51953125 C1251.83677373 3696.93815455 1248.55304383 3699.36267081 1245.2734375 3701.79296875 C1236.43340429 3708.33850461 1227.54098457 3714.79378891 1218.53222656 3721.10522461 C1215.7667059 3723.04421038 1213.00761641 3724.99157972 1210.25683594 3726.95141602 C1199.63615812 3734.51017235 1188.8561752 3741.80620375 1177.99609375 3749.015625 C1176.26916761 3750.16416794 1174.54228 3751.31276882 1172.81542969 3752.46142578 C1147.54937627 3769.25604619 1122.10011478 3785.68865485 1096.13330078 3801.38232422 C1094.12553937 3802.59596376 1092.11870191 3803.81113316 1090.11279297 3805.02783203 C1073.60789662 3815.03620522 1056.93301497 3824.72255883 1040.12109375 3834.203125 C1039.01540039 3834.82687012 1037.90970703 3835.45061523 1036.77050781 3836.09326172 C985.72503463 3864.82051129 933.48202021 3891.45542307 880.04345703 3915.43896484 C876.3122283 3917.11467187 872.58930424 3918.80805468 868.8671875 3920.50390625 C849.79490513 3929.16678407 830.50808036 3937.27370493 811.12109375 3945.203125 C810.46109375 3945.47318359 809.80109375 3945.74324219 809.12109375 3946.02148438 C716.07635519 3984.0509262 620.26636898 4014.84180229 70.20703125 4096.40625 C67.59739668 4096.41327166 64.98776228 4096.42035849 62.37812805 4096.42750549 C54.79295372 4096.44608235 47.20779518 4096.45175867 39.62260008 4096.45281267 C37.48655021 4096.4531264 35.35050062 4096.45379093 33.21445084 4096.45446396 C-7.65264049 4096.46365181 -48.43537274 4096.3334476 -89.22290039 4093.45959473 C-92.4253671 4093.23494088 -95.62823333 4093.01758695 -98.83144474 4092.80385017 C-203.20250823 4085.83404848 -307.04703225 4071.63068609 -598.87890625 3997.203125 C-599.78537903 3996.91070923 -600.69185181 3996.61829346 -601.62579346 3996.3170166 C-686.8639644 3968.77371064 -770.18427331 3935.07087274 -850.87890625 3896.203125 C-851.67423767 3895.82071655 -852.46956909 3895.43830811 -853.28900146 3895.04431152 C-875.33575505 3884.44349433 -897.25014267 3873.63569169 -918.87890625 3862.203125 C-920.03890137 3861.59017578 -921.19889648 3860.97722656 -922.39404297 3860.34570312 C-947.87652506 3846.85841422 -973.04710501 3832.8532243 -997.87890625 3818.203125 C-998.9776709 3817.55698242 -1000.07643555 3816.91083984 -1001.20849609 3816.24511719 C-1016.21637389 3807.41846093 -1031.13057133 3798.45809265 -1045.87890625 3789.203125 C-1047.03616211 3788.47778564 -1047.03616211 3788.47778564 -1048.21679688 3787.73779297 C-1052.92212061 3784.78549167 -1057.6165299 3781.81639101 -1062.3046875 3778.83691406 C-1064.08188306 3777.7089747 -1065.86062788 3776.58347397 -1067.640625 3775.45996094 C-1093.54750115 3759.10646388 -1118.79814813 3741.79126594 -1143.87890625 3724.203125 C-1145.38669606 3723.14970711 -1146.89450746 3722.09632011 -1148.40234375 3721.04296875 C-1158.20520483 3714.1771647 -1167.8524259 3707.1113614 -1177.46728516 3699.98535156 C-1179.86344286 3698.21455269 -1182.26638869 3696.45341328 -1184.671875 3694.6953125 C-1194.79854994 3687.28696477 -1204.7647091 3679.70213548 -1214.63623047 3671.95751953 C-1216.90002919 3670.186601 -1219.17130365 3668.42575285 -1221.4453125 3666.66796875 C-1229.41627677 3660.50335876 -1237.31850496 3654.27010857 -1245.1171875 3647.88867188 C-1249.36870464 3644.41362942 -1253.66791584 3641.00941676 -1258.00390625 3637.640625 C-1263.41847797 3633.42434125 -1268.65455462 3629.0317802 -1273.8425293 3624.54052734 C-1277.28956165 3621.55745345 -1280.77210814 3618.63357036 -1284.31640625 3615.765625 C-1293.14208369 3608.59313493 -1301.7155959 3601.1040209 -1310.12890625 3593.453125 C-1313.31502274 3590.55902574 -1316.57419305 3587.82126999 -1319.94140625 3585.140625 C-1325.80421559 3580.40527899 -1331.2412292 3575.2534263 -1336.68969727 3570.05053711 C-1340.69762581 3566.22737959 -1344.7713485 3562.51556357 -1348.95629883 3558.88720703 C-1351.99381824 3556.22653288 -1354.93650255 3553.46807091 -1357.87890625 3550.703125 C-1358.51626709 3550.10564453 -1359.15362793 3549.50816406 -1359.81030273 3548.89257812 C-1361.15369873 3547.63321605 -1362.49671161 3546.37344518 -1363.83935547 3545.11328125 C-1365.85945916 3543.22133831 -1367.8858453 3541.33636424 -1369.9140625 3539.453125 C-1377.08731494 3532.78033203 -1384.16122746 3526.03858963 -1391.01196289 3519.03320312 C-1393.73816662 3516.26292682 -1396.51142147 3513.62854488 -1399.46875 3511.10546875 C-1404.97664535 3506.34355779 -1410.07017364 3501.16114094 -1415.20629883 3496.00610352 C-1416.93785325 3494.269189 -1418.67468984 3492.53768611 -1420.41210938 3490.80664062 C-1425.52004578 3485.70145028 -1430.52386937 3480.58540529 -1435.21264648 3475.08764648 C-1438.5796777 3471.27957117 -1442.25590254 3467.76534006 -1445.87890625 3464.203125 C-1450.88793954 3459.2781359 -1455.76923972 3454.33207356 -1460.32226562 3448.97851562 C-1461.93655301 3447.13737732 -1463.63060939 3445.41678942 -1465.37890625 3443.703125 C-1467.67216661 3441.44514557 -1469.84318653 3439.14315996 -1471.94140625 3436.703125 C-1475.47725966 3432.5980072 -1479.17244562 3428.65336172 -1482.87890625 3424.703125 C-1487.64416476 3419.61618216 -1492.35713593 3414.50918525 -1496.87890625 3409.203125 C-1498.81507744 3406.93115486 -1500.75261297 3404.66035805 -1502.69140625 3402.390625 C-1503.20888428 3401.78428223 -1503.7263623 3401.17793945 -1504.25952148 3400.55322266 C-1507.4641855 3396.81203118 -1510.73115452 3393.14180211 -1514.06640625 3389.515625 C-1518.01875289 3385.2056851 -1521.73585961 3380.75779747 -1525.40625 3376.20703125 C-1528.28773012 3372.70646535 -1531.26601868 3369.30024476 -1534.25390625 3365.890625 C-1538.96675781 3360.50001464 -1543.47253792 3354.99414455 -1547.85498047 3349.33276367 C-1550.93308092 3345.36857728 -1554.11378121 3341.51436387 -1557.37890625 3337.703125 C-1562.60570897 3331.59220034 -1567.57884212 3325.3045826 -1572.51269531 3318.95605469 C-1573.85497733 3317.23382723 -1575.20507319 3315.51809226 -1576.55859375 3313.8046875 C-1583.15149374 3305.4577572 -1589.63111638 3297.02811702 -1596.07519531 3288.56591797 C-1597.99093567 3286.0563707 -1599.91486777 3283.55325003 -1601.83984375 3281.05078125 C-1609.08038402 3271.6211197 -1616.1605427 3262.11897893 -1622.9609375 3252.3671875 C-1626.00592182 3248.00308756 -1629.1274396 3243.69653716 -1632.25390625 3239.390625 C-1647.33809524 3218.53215871 -1661.63048432 3197.18329528 -1675.86450195 3175.73925781 C-1678.2457287 3172.15313081 -1680.63561437 3168.57289344 -1683.02870178 3164.99467468 C-1686.99037363 3159.06834133 -1690.90595179 3153.11899537 -1694.69140625 3147.078125 C-1695.18729248 3146.28937988 -1695.68317871 3145.50063477 -1696.1940918 3144.68798828 C-1697.75896641 3142.19506391 -1699.31961565 3139.69954537 -1700.87890625 3137.203125 C-1701.39324219 3136.38070312 -1701.90757812 3135.55828125 -1702.4375 3134.7109375 C-1721.0020444 3104.98914822 -1738.77694636 3074.78867563 -1755.87890625 3044.203125 C-1756.49491699 3043.10403809 -1757.11092773 3042.00495117 -1757.74560547 3040.87255859 C-1767.25117569 3023.8858632 -1776.35035951 3006.72212832 -1785.21389771 2989.39241028 C-1787.82913415 2984.28481037 -1790.50066859 2979.20871686 -1793.19140625 2974.140625 C-1802.47858254 2956.56359179 -1811.06162757 2938.69048996 -1819.36677551 2920.63101196 C-1821.24095315 2916.56379502 -1823.15006143 2912.5145711 -1825.078125 2908.47265625 C-1836.38815736 2884.69297888 -1846.65039761 2860.46364194 -1856.87890625 2836.203125 C-1857.25356018 2835.31588745 -1857.62821411 2834.4286499 -1858.01422119 2833.51452637 C-1874.90390994 2793.49295399 -1890.00332149 2752.76579897 -1904.03894043 2711.66119385 C-1904.88323848 2709.1904472 -1905.73095839 2706.72089388 -1906.57910156 2704.25146484 C-1939.43486923 2608.42136099 -1963.92966904 2509.89356888 -2008.84375 2193.5859375 C-2008.90647598 2192.74239716 -2008.96920197 2191.89885681 -2009.03382874 2191.02975464 C-2012.3587026 2144.50899196 -2013.25809554 2097.99087645 -2013.19389153 2051.36560345 C-2013.19053608 2048.53036202 -2013.18929924 2045.69512105 -2013.18798745 2042.85987806 C-2013.16749288 2002.69276047 -2012.89751936 1962.61252624 -2010.10675049 1922.52349854 C-2009.87344714 1919.1235694 -2009.65520555 1915.72295505 -2009.44091797 1912.32177734 C-2002.36370662 1800.59798048 -1985.80138494 1689.25261235 -1913.7253418 1413.80426025 C-1912.8622516 1411.1519445 -1912.00233499 1408.49861276 -1911.14257812 1405.84521484 C-1896.46745773 1360.63738882 -1879.94378518 1316.16336494 -1861.87890625 1272.203125 C-1861.534505 1271.36499268 -1861.19010376 1270.52686035 -1860.83526611 1269.66333008 C-1832.97856574 1201.97749627 -1802.00861752 1135.03827621 -1766.44677734 1071.03417969 C-1764.64836416 1067.78684252 -1762.86671681 1064.53046037 -1761.0859375 1061.2734375 C-1753.18859513 1046.8459005 -1745.10431986 1032.54930055 -1736.74755859 1018.38134766 C-1734.70363531 1014.90502243 -1732.6749508 1011.42008259 -1730.6484375 1007.93359375 C-1723.12483992 995.00223637 -1715.47554301 982.18690286 -1707.39648438 969.59228516 C-1705.76992272 967.03154957 -1704.17329661 964.45390365 -1702.58203125 961.87109375 C-1692.98901174 946.32024812 -1682.91823342 931.11863915 -1672.73379517 915.95150757 C-1670.11774377 912.05500942 -1667.51253213 908.15174053 -1664.921875 904.23828125 C-1649.09809076 880.33501742 -1632.45148635 857.04101775 -1615.4140625 833.9921875 C-1613.0590187 830.80576058 -1610.71312897 827.61292049 -1608.375 824.4140625 C-1600.9180012 814.22366352 -1593.29296457 804.18523838 -1585.49121094 794.25634766 C-1583.99405093 792.34975837 -1582.50192241 790.43937203 -1581.01171875 788.52734375 C-1575.06234629 780.90604398 -1568.99228471 773.38790189 -1562.8828125 765.89453125 C-1560.44774446 762.90669442 -1558.03153212 759.90465467 -1555.62890625 756.890625 C-1549.1995935 748.83720611 -1542.64563475 740.89616253 -1535.9699707 733.04638672 C-1533.01968939 729.57127838 -1530.12247956 726.05886276 -1527.25390625 722.515625 C-1523.67490502 718.11510925 -1519.93098325 713.90479979 -1516.109375 709.71484375 C-1513.88371274 707.20853756 -1511.78369064 704.63388107 -1509.69140625 702.015625 C-1504.78655029 695.94705102 -1499.45135624 690.31605836 -1494.1015625 684.640625 C-1491.19944495 681.55873025 -1488.39287264 678.40932602 -1485.62890625 675.203125 C-1481.94836013 670.99678657 -1478.1360595 666.90690553 -1474.34814453 662.79736328 C-1472.90789256 661.23457741 -1471.46944779 659.67014494 -1470.03125 658.10546875 C-1466.98804021 654.79765445 -1463.93535266 651.49870878 -1460.87890625 648.203125 C-1460.29061035 647.56826172 -1459.70231445 646.93339844 -1459.09619141 646.27929688 C-1451.98591659 638.61660408 -1444.83660351 631.01681517 -1437.35375977 623.71484375 C-1434.75245114 621.15874906 -1432.2976966 618.5504015 -1429.9375 615.76953125 C-1424.60061658 609.6030197 -1418.74531898 603.92100339 -1412.97290039 598.16674805 C-1410.94627645 596.14548232 -1408.92505078 594.11892926 -1406.90429688 592.09179688 C-1401.28464271 586.46954507 -1395.69608408 580.88250915 -1389.63061523 575.73657227 C-1386.20684815 572.73940418 -1383.06355687 569.44997582 -1379.87890625 566.203125 C-1375.3004785 561.53527484 -1370.66689306 557.03873709 -1365.68945312 552.79492188 C-1363.83810201 551.16725072 -1362.10407682 549.46324425 -1360.37890625 547.703125 C-1358.12092682 545.40986464 -1355.81894121 543.23884472 -1353.37890625 541.140625 C-1349.27380073 537.60478216 -1345.32895384 533.90977262 -1341.37890625 530.203125 C-1336.8995539 526.00335602 -1332.41035213 521.83617329 -1327.75390625 517.83203125 C-1325.49139444 515.86647411 -1323.28199942 513.84639191 -1321.06640625 511.828125 C-1317.60360543 508.69889673 -1314.07211622 505.69812151 -1310.44140625 502.765625 C-1306.63803122 499.68975912 -1302.97807973 496.51559334 -1299.37890625 493.203125 C-1294.98995879 489.16802479 -1290.47027859 485.36482196 -1285.83203125 481.62109375 C-1282.44531843 478.84811064 -1279.12948882 476.00072791 -1275.81640625 473.140625 C-1271.1560662 469.12541854 -1266.44842181 465.19719303 -1261.62109375 461.3828125 C-1258.7941532 459.13575719 -1255.99346611 456.85887613 -1253.1953125 454.57617188 C-1245.78445835 448.5312124 -1238.32011783 442.56300498 -1230.77734375 436.68359375 C-1228.7050899 435.06757686 -1226.63579658 433.44780683 -1224.56640625 431.828125 C-1210.14110338 420.55412413 -1195.48272515 409.61474115 -1180.73046875 398.7734375 C-1177.53167082 396.42217334 -1174.3392389 394.06268256 -1171.15234375 391.6953125 C-1160.71061972 383.94770276 -1150.14055772 376.41111085 -1139.45800781 368.99951172 C-1136.91080966 367.22534625 -1134.37420557 365.43697356 -1131.83984375 363.64453125 C-1106.40531546 345.71414784 -1080.26319591 328.70063057 -1053.87890625 312.203125 C-1053.05890137 311.68991699 -1052.23889648 311.17670898 -1051.39404297 310.64794922 C-1045.24034494 306.80352806 -1039.06352706 302.99754918 -1032.87890625 299.203125 C-1031.82461426 298.55472656 -1030.77032227 297.90632813 -1029.68408203 297.23828125 C-1012.27459523 286.54341289 -994.67848057 276.23453561 -976.87890625 266.203125 C-975.7997998 265.59339844 -974.72069336 264.98367188 -973.60888672 264.35546875 C-952.19940155 252.26509932 -930.60888608 240.5531453 -908.76953125 229.2578125 C-904.36636506 226.97957854 -899.97817982 224.67523781 -895.59912109 222.35107422 C-877.03125472 212.50514037 -858.18317026 203.31197886 -839.08984375 194.53125 C-834.37285473 192.3616131 -829.67051194 190.16477157 -824.98046875 187.9375 C-762.10210087 158.13413337 -697.1250636 132.53069108 -631.29980469 110.03070068 C-629.64651291 109.46552866 -627.99353151 108.89944811 -626.34082031 108.33258057 C-522.68282243 72.78363747 -415.98618845 45.95390706 0 0 Z " fill="#1876F2" transform="translate(2012.87890625,-0.203125)"/>
<path d="M0 0 C1.4257346 0.00040031 1.4257346 0.00040031 2.88027191 0.00080872 C34.9021189 0.01207581 66.82960763 0.49373471 98.8125 2.1875 C100.76196809 2.28808399 102.7114365 2.38866206 104.66091633 2.48901844 C144.28729017 4.53458377 183.82037291 7.32627048 223.34265137 10.87756348 C226.7205519 11.17928694 230.09891637 11.47503848 233.47753906 11.76855469 C283.55564821 16.12848828 333.41680994 22.25587878 383.21580505 29.0546608 C384.76167142 29.26568166 386.30757906 29.47640038 387.85353088 29.68679428 C404.35131572 31.9321483 420.82585765 34.28610973 437.265625 36.92578125 C438.27281208 37.08667268 438.27281208 37.08667268 439.30034637 37.25081444 C441.18154045 37.55244111 443.06198257 37.85874649 444.94238281 38.1652832 C446.53992401 38.42569145 446.53992401 38.42569145 448.16973877 38.69136047 C450.8125 39.1875 450.8125 39.1875 453.8125 40.1875 C453.8125 206.5075 453.8125 372.8275 453.8125 544.1875 C313.5 544.5 313.5 544.5 269.37768555 544.57543945 C256.19900698 544.61205127 256.19900698 544.61205127 243.02033997 544.6525116 C237.20103434 544.67027553 231.38178371 544.68020174 225.56245422 544.68461609 C179.59954246 544.56812462 179.59954246 544.56812462 133.8125 548.1875 C132.53934622 548.34153605 131.26619244 548.49557209 129.95445824 548.65427589 C64.98215033 556.62888352 1.45128455 579.29016041 -47.1875 624.1875 C-48.115625 625.0125 -49.04375 625.8375 -50 626.6875 C-55.48748629 631.57852039 -60.5266718 636.51026329 -65.1875 642.1875 C-66.15210139 643.32832996 -67.11697093 644.46893323 -68.08203125 645.609375 C-103.43971947 687.80979696 -123.72590983 740.13734249 -132.1875 794.1875 C-132.32639648 795.05052734 -132.46529297 795.91355469 -132.60839844 796.80273438 C-137.12214325 825.28711932 -137.49492596 853.84492776 -137.50414422 882.60661067 C-137.50798221 887.60087423 -137.52333663 892.59510647 -137.5371151 897.5893507 C-137.56207458 907.23862872 -137.57720644 916.8878959 -137.58869901 926.53719835 C-137.60245946 937.72286164 -137.62879049 948.90847322 -137.6550293 960.09411621 C-137.71806919 989.56272346 -137.7642745 1019.03136478 -137.8125 1048.5 C-137.998125 1147.3453125 -137.998125 1147.3453125 -138.1875 1248.1875 C49.2525 1248.1875 236.6925 1248.1875 429.8125 1248.1875 C428.68777486 1260.55947657 428.68777486 1260.55947657 427.84790039 1265.79882812 C427.56548996 1267.5793885 427.56548996 1267.5793885 427.27737427 1269.3959198 C427.07369232 1270.65745377 426.87001038 1271.91898773 426.66015625 1273.21875 C426.44214399 1274.58756894 426.22453454 1275.95645209 426.0072937 1277.32539368 C425.54272533 1280.24997538 425.07629565 1283.17425104 424.60836792 1286.09829712 C423.34537165 1293.99481995 422.09770225 1301.89377086 420.8515625 1309.79296875 C420.72375082 1310.60273352 420.59593914 1311.41249828 420.46425438 1312.24680138 C417.79838647 1329.15065789 415.25652224 1346.07189013 412.75 1363 C411.9292142 1368.53918553 411.10767383 1374.07825886 410.28515625 1379.6171875 C410.13306607 1380.64157205 410.13306607 1380.64157205 409.97790337 1381.68665123 C407.6026969 1397.67453973 405.15193852 1413.65065677 402.6875 1429.625 C402.58215439 1430.308008 402.47680878 1430.99101601 402.36827087 1431.69472122 C401.23176713 1439.06280906 400.09368559 1446.43065231 398.95458984 1453.79833984 C397.45455109 1463.50101499 395.95946699 1473.20445058 394.46621704 1482.90817261 C394.15478923 1484.93172968 393.84324499 1486.95526885 393.53158569 1488.97879028 C391.4142886 1502.72649814 389.30931435 1516.47604985 387.2127037 1530.2269249 C385.9757954 1538.33888389 384.73796507 1546.45070222 383.5 1554.5625 C383.36058739 1555.47616585 383.22117477 1556.3898317 383.07753754 1557.33118439 C379.16004696 1583.00237945 375.18165646 1608.6629467 371.125 1634.3125 C367.55917101 1656.85954113 364.09870079 1679.41967834 360.75 1702 C360.64826729 1702.68598015 360.54653458 1703.3719603 360.44171906 1704.07872772 C360.23717453 1705.4580327 360.03263363 1706.83733822 359.82809639 1708.21664429 C359.31798621 1711.65619238 358.80758986 1715.09569789 358.296875 1718.53515625 C358.19591396 1719.21510902 358.09495293 1719.8950618 357.99093246 1720.5956192 C355.6484481 1736.36156354 353.2418986 1752.1175673 350.81782913 1767.87115097 C350.50838156 1769.88300773 350.19941685 1771.89493806 349.89059448 1773.90689087 C348.11097125 1785.49256014 346.32473754 1797.07677182 344.44384766 1808.64648438 C344.32974076 1809.34919086 344.21563387 1810.05189735 344.09806919 1810.77589798 C343.54874712 1814.15585792 342.99640134 1817.5352581 342.43962097 1820.91400146 C342.24145279 1822.12735168 342.04328461 1823.3407019 341.83911133 1824.59082031 C341.66471024 1825.64988586 341.49030914 1826.70895142 341.31062317 1827.80010986 C340.70550871 1831.91507356 340.27180873 1836.05372144 339.8125 1840.1875 C182.0725 1840.1875 24.3325 1840.1875 -138.1875 1840.1875 C-138.1875 2312.7475 -138.1875 2785.3075 -138.1875 3272.1875 C-193.79536586 3280.46952257 -193.79536586 3280.46952257 -209.0625 3282.25 C-210.53894989 3282.42435577 -210.53894989 3282.42435577 -212.04522705 3282.60223389 C-253.45036033 3287.46540718 -294.94621475 3291.08629 -336.5625 3293.5 C-337.26840019 3293.54106117 -337.97430038 3293.58212234 -338.70159149 3293.6244278 C-343.4542683 3293.89984817 -348.20740859 3294.16547124 -352.9609375 3294.42578125 C-354.10256348 3294.48904099 -355.24418945 3294.55230072 -356.42041016 3294.61747742 C-378.64500607 3295.79213668 -400.84702855 3296.35338731 -423.1015625 3296.390625 C-425.71119707 3296.39764666 -428.32083147 3296.40473349 -430.9304657 3296.41188049 C-438.51564003 3296.43045735 -446.10079857 3296.43613367 -453.68599367 3296.43718767 C-455.82204354 3296.4375014 -457.95809313 3296.43816593 -460.09414291 3296.43883896 C-500.96123424 3296.44802681 -541.74396649 3296.3178226 -582.53149414 3293.44396973 C-585.73396085 3293.21931588 -588.93682708 3293.00196195 -592.14003849 3292.78822517 C-646.35429989 3289.16784766 -700.26465435 3283.40763661 -754.078125 3275.921875 C-755.12878143 3275.77625626 -756.17943787 3275.63063751 -757.26193237 3275.48060608 C-764.26309175 3274.49613952 -771.20857043 3273.35065493 -778.1875 3272.1875 C-778.1875 2799.6275 -778.1875 2327.0675 -778.1875 1840.1875 C-949.7875 1840.1875 -1121.3875 1840.1875 -1298.1875 1840.1875 C-1298.1875 1644.8275 -1298.1875 1449.4675 -1298.1875 1248.1875 C-1126.5875 1248.1875 -954.9875 1248.1875 -778.1875 1248.1875 C-778.30610366 1087.25035101 -778.30610366 1087.25035101 -778.45776367 926.31323242 C-778.47131348 895.0592041 -778.47131348 895.0592041 -778.47383118 880.38911438 C-778.47660581 870.22800062 -778.48751147 860.0669375 -778.50422668 849.90583801 C-778.5235532 838.13958878 -778.53195509 826.37338736 -778.52783485 814.6071222 C-778.52605567 808.60999779 -778.52853047 802.61297967 -778.54514539 796.6158756 C-778.60802946 772.70515701 -778.23539292 748.89977853 -776.80683899 725.02680969 C-776.74530005 723.99799752 -776.68376111 722.96918535 -776.62035736 721.90919705 C-770.96335762 629.49165073 -754.36986235 536.95261208 -612.1875 256.1875 C-611.16462891 254.92099609 -611.16462891 254.92099609 -610.12109375 253.62890625 C-595.13277072 235.1549267 -579.04268987 217.96116134 -562.25 201.125 C-561.66386932 200.53619049 -561.07773865 199.94738098 -560.47384644 199.34072876 C-554.22090329 193.06611619 -547.94515324 186.92351736 -541.1875 181.1875 C-539.57981627 179.73304483 -537.97510285 178.27529105 -536.375 176.8125 C-531.12574117 172.08178498 -525.69191004 167.61666306 -520.1875 163.1875 C-519.06614698 162.27375558 -517.94506489 161.35967861 -516.82421875 160.4453125 C-484.18432531 133.9251199 -448.72175808 111.37962857 -411.69189453 91.53369141 C-409.41205561 90.30820576 -407.14046171 89.06895037 -404.87109375 87.82421875 C-339.55507399 52.24207775 -265.09743099 29.55658356 -192.1875 16.1875 C-191.45090149 16.0521283 -190.71430298 15.91675659 -189.9553833 15.77728271 C-155.18049182 9.41379669 -120.2475339 5.1119655 -85 2.4375 C-84.22420593 2.37824341 -83.44841187 2.31898682 -82.64910889 2.25793457 C-77.16481771 1.84664576 -71.67849252 1.49624848 -66.1875 1.1875 C-64.90650925 1.1149147 -64.90650925 1.1149147 -63.59963989 1.04086304 C-42.41544426 -0.10275801 -21.20786228 -0.01335123 0 0 Z " fill="#FEFEFE" transform="translate(2506.1875,799.8125)"/>
</svg>
