<?xml version="1.0" encoding="UTF-8"?>
<svg version="1.1" xmlns="http://www.w3.org/2000/svg" width="640" height="640">
<path d="M0 0 C0.90524414 0.21881836 1.81048828 0.43763672 2.74316406 0.66308594 C11.68757252 2.8631894 20.43983745 5.58985394 29 9 C29.91700684 9.35916504 29.91700684 9.35916504 30.85253906 9.72558594 C44.04099391 14.90835054 57.34717582 20.41352822 68.97265625 28.625 C71.87570185 30.59392495 74.94704871 32.20356842 78.0546875 33.82421875 C80 35 80 35 81.5703125 36.58203125 C83.05582814 38.26501442 83.05582814 38.26501442 86 39 C87.33333333 40.33333333 88.66666667 41.66666667 90 43 C92.10621885 44.5806748 94.2377421 46.11636578 96.390625 47.6328125 C96.92171875 48.08398438 97.4528125 48.53515625 98 49 C98 49.66 98 50.32 98 51 C98.556875 51.04125 99.11375 51.0825 99.6875 51.125 C102.57902316 52.21908985 103.7310355 53.99677983 105.58203125 56.39453125 C107.09116404 58.10321879 108.59566624 59.19410637 110.5 60.4375 C113.77245892 62.63563115 115.6007436 65.02701096 117.73828125 68.30078125 C119.08046352 70.10836418 120.47259702 71.31539556 122.25 72.6875 C125.06643224 75.05586348 125.39396 75.60617598 126 79 C126.99 79.33 127.98 79.66 129 80 C130.51464844 81.68310547 130.51464844 81.68310547 132.109375 83.8671875 C132.69589844 84.66511719 133.28242188 85.46304688 133.88671875 86.28515625 C134.50160156 87.13980469 135.11648438 87.99445313 135.75 88.875 C136.38035156 89.74253906 137.01070313 90.61007813 137.66015625 91.50390625 C144.4966138 100.9730369 150.58297588 110.64264989 156 121 C156.74056641 122.40185547 156.74056641 122.40185547 157.49609375 123.83203125 C163.96775751 136.3887399 168.79509813 149.53159218 173 163 C173.21011719 163.65210449 173.42023438 164.30420898 173.63671875 164.97607422 C185.620742 202.53509255 185.98438296 245.73295051 177 284 C176.69570068 285.31822754 176.69570068 285.31822754 176.38525391 286.66308594 C175.14874552 291.85497494 173.66499154 296.93069541 172 302 C171.73960937 302.8058252 171.47921875 303.61165039 171.2109375 304.44189453 C166.20728932 319.77725786 159.89490152 333.93008364 152 348 C150.87265103 350.061217 149.74760463 352.12369524 148.625 354.1875 C147.75 355.79166667 146.875 357.39583333 146 359 C145.34 359 144.68 359 144 359 C143.73574219 359.72920654 143.47148438 360.45841309 143.19921875 361.2097168 C141.18762324 365.89019829 138.02459965 369.74022276 135 373.8125 C134.35804688 374.69615234 133.71609375 375.57980469 133.0546875 376.49023438 C132.43851562 377.32490234 131.82234375 378.15957031 131.1875 379.01953125 C130.62417969 379.78370361 130.06085938 380.54787598 129.48046875 381.33520508 C128.99191406 381.8845874 128.50335938 382.43396973 128 383 C127.34 383 126.68 383 126 383 C125.73703125 383.57878906 125.4740625 384.15757812 125.203125 384.75390625 C121.86114643 390.99298962 116.36549024 395.54778469 111 400 C109.95830838 401.1692457 108.93799876 402.35781781 107.9375 403.5625 C105.53735722 406.44771101 103.10293359 408.84518501 100 411 C99.34 411 98.68 411 98 411 C97.67 411.99 97.34 412.98 97 414 C95.31347656 415.50219727 95.31347656 415.50219727 93.140625 417.06640625 C92.35429687 417.63423828 91.56796875 418.20207031 90.7578125 418.78710938 C89.93023437 419.37298828 89.10265625 419.95886719 88.25 420.5625 C87.43789063 421.15224609 86.62578125 421.74199219 85.7890625 422.34960938 C81.93718136 425.10677837 78.47167397 427.35917623 74 429 C74 429.66 74 430.32 74 431 C72.98292969 431.54527344 72.98292969 431.54527344 71.9453125 432.1015625 C67.29132008 434.61549192 62.7131948 437.15978513 58.25 440 C52.9440751 443.23263686 47.29308188 445.41771994 41.515625 447.6328125 C38.84143041 448.67277706 36.27362848 449.76802541 33.6875 451 C26.37949994 454.30305087 18.64034013 456.60124945 11 459 C9.22496094 459.56074219 9.22496094 459.56074219 7.4140625 460.1328125 C3.63610973 461.23075301 -0.15985497 462.15382306 -4 463 C-4.79519043 463.18336914 -5.59038086 463.36673828 -6.40966797 463.55566406 C-37.05770723 470.31298218 -73.45479218 470.23362622 -104 463 C-105.25997803 462.70319336 -105.25997803 462.70319336 -106.54541016 462.40039062 C-111.76284633 461.12769453 -116.88461493 459.63082808 -122 458 C-122.63905273 457.80293457 -123.27810547 457.60586914 -123.93652344 457.40283203 C-141.61354216 451.94522291 -159.224491 444.73438599 -175 435 C-176.10214844 434.34064453 -176.10214844 434.34064453 -177.2265625 433.66796875 C-183.73654409 429.64959249 -189.94109979 425.25026787 -196.125 420.75 C-196.97916504 420.13535889 -197.83333008 419.52071777 -198.71337891 418.88745117 C-199.51179199 418.30068604 -200.31020508 417.7139209 -201.1328125 417.109375 C-202.21393311 416.31998535 -202.21393311 416.31998535 -203.31689453 415.51464844 C-205 414 -205 414 -206 411 C-206.5775 410.896875 -207.155 410.79375 -207.75 410.6875 C-210.70160774 409.78561986 -211.74622386 407.9835454 -213.58203125 405.60546875 C-215.09116404 403.89678121 -216.59566624 402.80589363 -218.5 401.5625 C-221.77245892 399.36436885 -223.6007436 396.97298904 -225.73828125 393.69921875 C-227.08046352 391.89163582 -228.47259702 390.68460444 -230.25 389.3125 C-233.12569445 386.89430239 -233.29464239 386.40922846 -234 383 C-234.5671875 382.76925781 -235.134375 382.53851563 -235.71875 382.30078125 C-239.04063463 380.40662443 -240.7747222 377.47504549 -242.875 374.375 C-243.7621313 373.09443538 -244.65014684 371.81448288 -245.5390625 370.53515625 C-245.96348633 369.92043457 -246.38791016 369.30571289 -246.82519531 368.67236328 C-248.23487013 366.6656566 -249.73100326 364.73736624 -251.25 362.8125 C-254.12164399 359.02935103 -256.29819428 354.9577036 -258.5078125 350.76171875 C-259.86932318 348.24185475 -261.33732282 345.85206876 -262.875 343.4375 C-267.37839899 336.03059376 -270.61306251 327.95987977 -274 320 C-274.41507813 319.03449219 -274.83015625 318.06898438 -275.2578125 317.07421875 C-279.76625433 306.22910868 -282.94162531 294.77870766 -285.48242188 283.32519531 C-285.82988102 281.7642515 -286.19076627 280.20624068 -286.56445312 278.65136719 C-294.03498536 246.60405008 -292.94477652 208.83374691 -285 177 C-284.78118164 176.09475586 -284.56236328 175.18951172 -284.33691406 174.25683594 C-282.1368106 165.31242748 -279.41014606 156.56016255 -276 148 C-275.76055664 147.38866211 -275.52111328 146.77732422 -275.27441406 146.14746094 C-270.09164946 132.95900609 -264.58647178 119.65282418 -256.375 108.02734375 C-254.40607505 105.12429815 -252.79643158 102.05295129 -251.17578125 98.9453125 C-250 97 -250 97 -248.41796875 95.4296875 C-246.73498558 93.94417186 -246.73498558 93.94417186 -246 91 C-245.34 91 -244.68 91 -244 91 C-243.731875 90.42765625 -243.46375 89.8553125 -243.1875 89.265625 C-241.95867364 86.92115366 -240.57477824 84.87595062 -239 82.75 C-238.484375 82.04359375 -237.96875 81.3371875 -237.4375 80.609375 C-236.963125 80.07828125 -236.48875 79.5471875 -236 79 C-235.34 79 -234.68 79 -234 79 C-233.938125 78.443125 -233.87625 77.88625 -233.8125 77.3125 C-232.6552513 74.01879217 -230.51681071 72.40495246 -228 70 C-227.05226913 68.88360516 -226.11524127 67.75806107 -225.1875 66.625 C-222.3614237 63.27449718 -219.23332657 60.4705175 -215.890625 57.64453125 C-214.21567654 56.18760294 -212.7020079 54.68192863 -211.1875 53.0625 C-209 51 -209 51 -206 51 C-205.7525 50.40703125 -205.505 49.8140625 -205.25 49.203125 C-203.81031137 46.6656738 -202.34848507 45.45955898 -200 43.75 C-198.948125 42.96882813 -198.948125 42.96882813 -197.875 42.171875 C-196 41 -196 41 -194 41 C-194 40.34 -194 39.68 -194 39 C-192.36021682 37.95650161 -190.68535024 36.96817992 -189 36 C-187.96875 35.236875 -186.9375 34.47375 -185.875 33.6875 C-182.05888812 30.92268141 -177.98940184 28.75625317 -173.8359375 26.54296875 C-171.10992009 25.05980501 -168.46060899 23.49238349 -165.8125 21.875 C-157.19819812 16.68760448 -148.29597717 13.12074744 -138.86572266 9.6875 C-137.33432461 9.12319525 -135.81219747 8.53379179 -134.29296875 7.9375 C-124.45929931 4.12476872 -114.2362852 1.4801871 -104 -1 C-103.12827148 -1.2175293 -102.25654297 -1.43505859 -101.35839844 -1.65917969 C-69.54705983 -9.21842864 -31.59886582 -7.88615704 0 0 Z " fill="#2797CF" transform="translate(374,89)"/>
<path d="M0 0 C16.83 0 33.66 0 51 0 C51 8.25 51 16.5 51 25 C51.66 25 52.32 25 53 25 C53.10570312 24.41863281 53.21140625 23.83726562 53.3203125 23.23828125 C55.83209567 14.96671944 64.87647049 9.86144427 72 6 C82.66198668 0.88415886 92.81941801 -0.3525412 104.52685547 -0.31567383 C106.60048231 -0.31253709 108.67264468 -0.33595805 110.74609375 -0.36132812 C129.20944592 -0.45126018 146.19078569 3.33645403 159.88671875 16.62890625 C176.79876412 35.60415863 176.45485334 61.45639709 176.30418181 85.26729774 C176.2851916 88.78393394 176.28364725 92.30058117 176.28010559 95.81726074 C176.27084976 102.45021118 176.24632543 109.08301 176.21605712 115.71589422 C176.17898744 124.02280644 176.16275898 132.32974423 176.14648438 140.63671875 C176.1174223 155.42459671 176.05730082 170.21214473 176 185 C157.85 185 139.7 185 121 185 C120.93941406 177.74128906 120.87882812 170.48257813 120.81640625 163.00390625 C120.77589586 158.39647868 120.73511441 153.78905668 120.69335938 149.18164062 C120.62715728 141.87379906 120.56194112 134.56595827 120.50268555 127.25805664 C120.45483234 121.36415046 120.40248307 115.47029957 120.34705925 109.57645988 C120.3267303 107.33150554 120.30800218 105.08653609 120.29092598 102.84155464 C120.26667131 99.68931773 120.23664722 96.53718329 120.20532227 93.38500977 C120.1995668 92.46359192 120.19381134 91.54217407 120.18788147 90.59283447 C120.03811633 77.27275039 118.73038755 64.64085404 110 54 C104.31628034 48.46201675 98.35500925 46.62512257 90.6171875 46.58984375 C89.75351562 46.60144531 88.88984375 46.61304688 88 46.625 C87.13632812 46.61339844 86.27265625 46.60179687 85.3828125 46.58984375 C77.3791866 46.62633445 71.30748369 48.90033234 65 54 C53.00742889 67.24865088 54.39665385 86.25659041 54.390625 102.87109375 C54.37561821 105.24863294 54.35888589 107.62616179 54.34051514 110.00367737 C54.29711027 116.21282471 54.27690237 122.42183149 54.26177979 128.63110352 C54.23864347 136.10712952 54.18624524 143.58300261 54.13883972 151.05890656 C54.07033007 162.37264394 54.03863431 173.68594374 54 185 C36.18 185 18.36 185 0 185 C0 123.95 0 62.9 0 0 Z " fill="#FEFEFE" transform="translate(289,262)"/>
<path d="M0 0 C21.78 0 43.56 0 66 0 C66 61.71 66 123.42 66 187 C44.22 187 22.44 187 0 187 C0 125.29 0 63.58 0 0 Z " fill="#FBFDFE" transform="translate(186,261)"/>
<path d="M0 0 C5.50910236 4.47018859 9.13848839 10.22796516 11.375 16.9375 C12.06649584 28.77271722 11.77380932 38.56964018 4.0390625 48.15234375 C-2.27401489 54.92482349 -9.54859812 57.97319314 -18.74731445 58.39257812 C-26.78834265 58.5529281 -32.88744015 57.69958113 -39.625 52.9375 C-40.21667969 52.53015625 -40.80835938 52.1228125 -41.41796875 51.703125 C-47.16529074 47.33232211 -51.17327941 40.99908371 -52.625 33.9375 C-53.53875238 23.91602013 -53.61010018 15.46626775 -47.625 6.9375 C-46.903125 5.865 -46.18125 4.7925 -45.4375 3.6875 C-32.93551286 -8.5366652 -14.23701482 -9.97767651 0 0 Z " fill="#FDFEFE" transform="translate(239.625,175.0625)"/>
</svg>
